#!OML:ASF F:\VICON\USERDATA\INSTALL\rory7\rory7.ASF
:FULLY-SPECIFIED
:DEGREES
1108
root 1.74986 26.1624 2.48123 -174.168 -13.2506 164.338
lowerback 27.8855 -0.245966 -2.79346
upperback 6.57618 -2.70676 -1.82122
thorax -8.03551 -1.83713 0.580439
lowerneck -11.3218 0.721234 -8.77139
upperneck 22.2089 1.24622 3.20692
head 8.71331 -0.119566 2.648
rclavicle -4.69132e-014 -1.59028e-015
rhumerus 25.3309 1.80358 -63.0434
rradius 102.603
rwrist -14.6444
rhand -35.99 -376.211
rfingers 7.12502
rthumb -9.10013 314.005
lclavicle -4.69132e-014 -1.59028e-015
lhumerus 45.9455 -1.01045 53.0964
lradius 72.3067
lwrist 48.1336
lhand -20.562 34.7457
lfingers 7.12502
lthumb 5.79723 64.6464
rfemur -52.9679 2.21957 5.54544
rtibia 77.5678
rfoot -26.9158 -1.00767
rtoes 11.6745
lfemur -19.7694 -2.64246 -31.0756
ltibia 25.5516
lfoot 18.436 3.5682
ltoes -10.1637
1109
root 1.71748 26.1119 2.51621 -174.343 -13.0125 164.364
lowerback 28.1187 -0.182779 -2.75254
upperback 6.55439 -2.62821 -1.78644
thorax -8.17658 -1.80041 0.577499
lowerneck -11.2414 0.711057 -8.91563
upperneck 22.0217 1.23566 3.35415
head 8.63252 -0.111155 2.71807
rclavicle 1.59028e-015 1.11319e-014
rhumerus 25.7695 1.63222 -62.7442
rradius 102.311
rwrist -14.9248
rhand -35.7945 -376.311
rfingers 7.12502
rthumb -8.91149 313.897
lclavicle 1.59028e-015 1.11319e-014
lhumerus 46.2105 -0.820812 53.1002
lradius 72.0555
lwrist 48.2496
lhand -20.4347 35.0425
lfingers 7.12502
lthumb 5.92018 64.9398
rfemur -53.2811 1.85067 5.56497
rtibia 77.9897
rfoot -26.9616 -0.724538
rtoes 11.716
lfemur -19.5966 -2.44607 -31.2318
ltibia 25.3709
lfoot 18.055 4.13399
ltoes -9.65477
1110
root 1.68522 26.0727 2.5486 -174.607 -12.8578 164.436
lowerback 28.3614 -0.169704 -2.54641
upperback 6.62502 -2.58766 -1.79216
thorax -8.22561 -1.79492 0.446141
lowerneck -11.4861 0.659 -8.78705
upperneck 22.1445 1.18648 3.24964
head 8.72536 -0.136012 2.66035
rclavicle -3.26007e-014 1.59028e-015
rhumerus 26.2403 1.36153 -62.5161
rradius 102.116
rwrist -15.1532
rhand -35.5925 -376.503
rfingers 7.12502
rthumb -8.71662 313.697
lclavicle -3.26007e-014 1.59028e-015
lhumerus 46.5788 -0.617116 53.0198
lradius 71.8648
lwrist 48.4004
lhand -20.4535 35.8453
lfingers 7.12502
lthumb 5.90201 65.7431
rfemur -53.4779 1.50122 5.646
rtibia 78.3779
rfoot -26.9813 -0.525965
rtoes 11.9562
lfemur -19.3143 -2.40733 -31.3196
ltibia 25.1542
lfoot 17.8115 4.87027
ltoes -8.44381
1111
root 1.65223 26.0323 2.58292 -174.872 -12.7232 164.441
lowerback 28.6664 -0.147253 -2.36286
upperback 6.69066 -2.54841 -1.82264
thorax -8.3104 -1.79025 0.30234
lowerneck -11.7825 0.61333 -8.55854
upperneck 22.2292 1.16741 3.01233
head 8.81537 -0.148739 2.54349
rclavicle 1.59028e-015 3.97569e-014
rhumerus 26.6223 1.05618 -62.2559
rradius 101.999
rwrist -15.4077
rhand -35.375 -376.725
rfingers 7.12502
rthumb -8.50668 313.467
lclavicle 1.59028e-015 3.97569e-014
lhumerus 46.9907 -0.513586 52.9331
lradius 71.631
lwrist 48.5371
lhand -20.5785 36.3179
lfingers 7.12502
lthumb 5.78134 66.219
rfemur -53.6808 1.09411 5.67208
rtibia 78.7626
rfoot -26.9399 -0.270815
rtoes 12.4813
lfemur -19.0075 -2.32607 -31.4955
ltibia 24.8813
lfoot 17.6617 5.37884
ltoes -8.20848
1112
root 1.6195 25.985 2.61946 -175.008 -12.4536 164.392
lowerback 28.8256 -0.0351472 -2.38803
upperback 6.73411 -2.4317 -1.78887
thorax -8.33854 -1.74193 0.318519
lowerneck -11.8967 0.548181 -8.60868
upperneck 22.1053 1.1364 2.9278
head 8.79791 -0.166151 2.51955
rclavicle -1.03368e-014 -2.06736e-014
rhumerus 27.1999 0.789697 -61.8925
rradius 101.74
rwrist -15.6925
rhand -35.3077 -376.896
rfingers 7.12502
rthumb -8.44177 313.293
lclavicle -1.03368e-014 -2.06736e-014
lhumerus 47.3932 -0.346324 52.9475
lradius 71.3351
lwrist 48.6383
lhand -20.3213 36.5205
lfingers 7.12502
lthumb 6.0296 66.4147
rfemur -54.1084 0.773285 5.59669
rtibia 79.1869
rfoot -26.8933 0.132199
rtoes 13.0482
lfemur -18.8565 -2.19189 -31.7173
ltibia 24.5973
lfoot 17.435 5.95713
ltoes -8.09479
1113
root 1.58497 25.9362 2.65379 -175.264 -12.3091 164.389
lowerback 29.1165 0.0173974 -2.35883
upperback 6.78319 -2.38238 -1.71053
thorax -8.42326 -1.72766 0.380325
lowerneck -11.7917 0.475232 -8.60297
upperneck 21.8542 1.07576 2.76179
head 8.6995 -0.199632 2.45149
rclavicle -1.35174e-014 1.59028e-014
rhumerus 27.9 0.587614 -61.5415
rradius 101.305
rwrist -15.9264
rhand -35.3608 -376.838
rfingers 7.12502
rthumb -8.49298 313.353
lclavicle -1.35174e-014 1.59028e-014
lhumerus 47.7041 -0.118865 52.9041
lradius 71.0566
lwrist 48.9049
lhand -20.2845 36.5109
lfingers 7.12502
lthumb 6.0652 66.4041
rfemur -54.325 0.360764 5.57909
rtibia 79.621
rfoot -26.8838 0.466681
rtoes 13.2391
lfemur -18.5641 -2.0857 -31.8825
ltibia 24.3369
lfoot 17.3117 6.1436
ltoes -8.51084
1114
root 1.54991 25.8883 2.68878 -175.507 -12.1157 164.397
lowerback 29.4331 0.0960815 -2.36455
upperback 6.82495 -2.30931 -1.61528
thorax -8.52687 -1.70129 0.473573
lowerneck -11.825 0.437234 -8.52419
upperneck 21.7187 1.06863 2.55439
head 8.66355 -0.209962 2.36577
rclavicle -2.54444e-014 -2.54444e-014
rhumerus 28.4965 0.355888 -61.2145
rradius 100.96
rwrist -16.1568
rhand -35.3262 -376.315
rfingers 7.12502
rthumb -8.45959 313.875
lclavicle -2.54444e-014 -2.54444e-014
lhumerus 47.9301 0.117423 52.8214
lradius 70.8697
lwrist 49.2408
lhand -20.4291 36.57
lfingers 7.12502
lthumb 5.92551 66.4672
rfemur -54.566 -0.00785012 5.55006
rtibia 80.0452
rfoot -26.8804 0.825175
rtoes 13.054
lfemur -18.3502 -2.04295 -32.0252
ltibia 24.1515
lfoot 17.3339 6.17518
ltoes -9.47157
1115
root 1.51359 25.8485 2.72603 -175.647 -11.842 164.559
lowerback 29.6388 0.158602 -2.22621
upperback 6.81315 -2.19056 -1.50998
thorax -8.64169 -1.6477 0.475793
lowerneck -11.931 0.390891 -8.59545
upperneck 21.6856 1.04779 2.50759
head 8.67409 -0.226681 2.36013
rclavicle 3.57812e-014 2.70347e-014
rhumerus 29.041 0.0894767 -60.8759
rradius 100.674
rwrist -16.4949
rhand -35.2457 -376.045
rfingers 7.12502
rthumb -8.38185 314.142
lclavicle 3.57812e-014 2.70347e-014
lhumerus 48.1612 0.331707 52.7508
lradius 70.6559
lwrist 49.4752
lhand -20.4978 36.5713
lfingers 7.12502
lthumb 5.85926 66.4703
rfemur -54.9584 -0.246583 5.66329
rtibia 80.3947
rfoot -26.8059 1.12263
rtoes 12.6604
lfemur -18.3125 -2.15962 -31.9928
ltibia 23.9997
lfoot 17.2505 6.34161
ltoes -10.0007
1116
root 1.47767 25.8081 2.76293 -175.796 -11.6165 164.864
lowerback 29.8052 0.159716 -1.87714
upperback 6.79104 -2.08165 -1.43098
thorax -8.7556 -1.60043 0.32889
lowerneck -11.9973 0.35461 -8.55412
upperneck 21.7025 0.997006 2.50778
head 8.69532 -0.246633 2.34877
rclavicle 2.06736e-014 -1.43125e-014
rhumerus 29.5078 -0.172378 -60.6431
rradius 100.488
rwrist -16.7981
rhand -35.1008 -376.173
rfingers 7.12502
rthumb -8.24206 314.007
lclavicle 2.06736e-014 -1.43125e-014
lhumerus 48.469 0.492552 52.607
lradius 70.3673
lwrist 49.6633
lhand -20.4961 36.6278
lfingers 7.12502
lthumb 5.86084 66.5268
rfemur -55.3244 -0.450958 5.92232
rtibia 80.7185
rfoot -26.7054 1.4495
rtoes 12.519
lfemur -18.3373 -2.35918 -31.7914
ltibia 23.8938
lfoot 17.195 6.38565
ltoes -10.737
